<mxfile host="Electron" modified="2023-11-30T10:20:17.275Z" agent="Mozilla/5.0 (Windows NT 10.0; Win64; x64) AppleWebKit/537.36 (KHTML, like Gecko) draw.io/22.0.2 Chrome/114.0.5735.289 Electron/25.8.4 Safari/537.36" etag="ZvhTKVDSbWbviAHeyz9O" version="22.0.2" type="device">
  <diagram name="StrÃ¡nka-1" id="_tlrF3usT98VBUCfmIHh">
    <mxGraphModel dx="1674" dy="844" grid="1" gridSize="10" guides="1" tooltips="1" connect="1" arrows="1" fold="1" page="1" pageScale="1" pageWidth="827" pageHeight="1169" math="0" shadow="0">
      <root>
        <mxCell id="0" />
        <mxCell id="1" parent="0" />
        <mxCell id="TmiG85bJR1pki3lDTlbm-10" style="edgeStyle=orthogonalEdgeStyle;rounded=0;orthogonalLoop=1;jettySize=auto;html=1;exitX=1;exitY=0.5;exitDx=0;exitDy=0;entryX=0;entryY=0.5;entryDx=0;entryDy=0;" edge="1" parent="1" source="TmiG85bJR1pki3lDTlbm-1" target="TmiG85bJR1pki3lDTlbm-2">
          <mxGeometry relative="1" as="geometry" />
        </mxCell>
        <mxCell id="TmiG85bJR1pki3lDTlbm-1" value="0&lt;br&gt;Idle" style="ellipse;whiteSpace=wrap;html=1;aspect=fixed;" vertex="1" parent="1">
          <mxGeometry x="160" y="160" width="60" height="60" as="geometry" />
        </mxCell>
        <mxCell id="TmiG85bJR1pki3lDTlbm-15" style="edgeStyle=orthogonalEdgeStyle;rounded=0;orthogonalLoop=1;jettySize=auto;html=1;exitX=1;exitY=0.5;exitDx=0;exitDy=0;" edge="1" parent="1" source="TmiG85bJR1pki3lDTlbm-2" target="TmiG85bJR1pki3lDTlbm-3">
          <mxGeometry relative="1" as="geometry" />
        </mxCell>
        <mxCell id="TmiG85bJR1pki3lDTlbm-2" value="1&lt;br&gt;Filling" style="ellipse;whiteSpace=wrap;html=1;aspect=fixed;" vertex="1" parent="1">
          <mxGeometry x="320" y="160" width="60" height="60" as="geometry" />
        </mxCell>
        <mxCell id="TmiG85bJR1pki3lDTlbm-17" style="edgeStyle=orthogonalEdgeStyle;rounded=0;orthogonalLoop=1;jettySize=auto;html=1;exitX=1;exitY=0.5;exitDx=0;exitDy=0;entryX=0;entryY=0.5;entryDx=0;entryDy=0;" edge="1" parent="1" source="TmiG85bJR1pki3lDTlbm-3" target="TmiG85bJR1pki3lDTlbm-4">
          <mxGeometry relative="1" as="geometry" />
        </mxCell>
        <mxCell id="TmiG85bJR1pki3lDTlbm-3" value="2&lt;br&gt;Filled" style="ellipse;whiteSpace=wrap;html=1;aspect=fixed;" vertex="1" parent="1">
          <mxGeometry x="480" y="160" width="60" height="60" as="geometry" />
        </mxCell>
        <mxCell id="TmiG85bJR1pki3lDTlbm-18" value="" style="edgeStyle=orthogonalEdgeStyle;rounded=0;orthogonalLoop=1;jettySize=auto;html=1;" edge="1" parent="1" source="TmiG85bJR1pki3lDTlbm-4" target="TmiG85bJR1pki3lDTlbm-5">
          <mxGeometry relative="1" as="geometry" />
        </mxCell>
        <mxCell id="TmiG85bJR1pki3lDTlbm-4" value="3&lt;br&gt;Heating" style="ellipse;whiteSpace=wrap;html=1;aspect=fixed;" vertex="1" parent="1">
          <mxGeometry x="640" y="160" width="60" height="60" as="geometry" />
        </mxCell>
        <mxCell id="TmiG85bJR1pki3lDTlbm-19" value="" style="edgeStyle=orthogonalEdgeStyle;rounded=0;orthogonalLoop=1;jettySize=auto;html=1;" edge="1" parent="1" source="TmiG85bJR1pki3lDTlbm-5" target="TmiG85bJR1pki3lDTlbm-6">
          <mxGeometry relative="1" as="geometry" />
        </mxCell>
        <mxCell id="TmiG85bJR1pki3lDTlbm-5" value="4&lt;br&gt;Heated" style="ellipse;whiteSpace=wrap;html=1;aspect=fixed;" vertex="1" parent="1">
          <mxGeometry x="640" y="310" width="60" height="60" as="geometry" />
        </mxCell>
        <mxCell id="TmiG85bJR1pki3lDTlbm-20" value="" style="edgeStyle=orthogonalEdgeStyle;rounded=0;orthogonalLoop=1;jettySize=auto;html=1;" edge="1" parent="1" source="TmiG85bJR1pki3lDTlbm-6" target="TmiG85bJR1pki3lDTlbm-7">
          <mxGeometry relative="1" as="geometry" />
        </mxCell>
        <mxCell id="TmiG85bJR1pki3lDTlbm-6" value="5&lt;br&gt;Mixing" style="ellipse;whiteSpace=wrap;html=1;aspect=fixed;" vertex="1" parent="1">
          <mxGeometry x="480" y="310" width="60" height="60" as="geometry" />
        </mxCell>
        <mxCell id="TmiG85bJR1pki3lDTlbm-21" value="" style="edgeStyle=orthogonalEdgeStyle;rounded=0;orthogonalLoop=1;jettySize=auto;html=1;" edge="1" parent="1" source="TmiG85bJR1pki3lDTlbm-7" target="TmiG85bJR1pki3lDTlbm-8">
          <mxGeometry relative="1" as="geometry" />
        </mxCell>
        <mxCell id="TmiG85bJR1pki3lDTlbm-7" value="6&lt;br&gt;Mixed" style="ellipse;whiteSpace=wrap;html=1;aspect=fixed;" vertex="1" parent="1">
          <mxGeometry x="320" y="310" width="60" height="60" as="geometry" />
        </mxCell>
        <mxCell id="TmiG85bJR1pki3lDTlbm-22" value="" style="edgeStyle=orthogonalEdgeStyle;rounded=0;orthogonalLoop=1;jettySize=auto;html=1;" edge="1" parent="1" source="TmiG85bJR1pki3lDTlbm-8" target="TmiG85bJR1pki3lDTlbm-1">
          <mxGeometry relative="1" as="geometry" />
        </mxCell>
        <mxCell id="TmiG85bJR1pki3lDTlbm-8" value="7&lt;br&gt;Draining" style="ellipse;whiteSpace=wrap;html=1;aspect=fixed;" vertex="1" parent="1">
          <mxGeometry x="160" y="310" width="60" height="60" as="geometry" />
        </mxCell>
        <mxCell id="TmiG85bJR1pki3lDTlbm-12" value="Start command" style="text;html=1;align=center;verticalAlign=middle;resizable=0;points=[];autosize=1;strokeColor=none;fillColor=none;" vertex="1" parent="1">
          <mxGeometry x="220" y="160" width="100" height="30" as="geometry" />
        </mxCell>
        <mxCell id="TmiG85bJR1pki3lDTlbm-13" value="Stop command&lt;br&gt;or Reset" style="text;html=1;align=center;verticalAlign=middle;resizable=0;points=[];autosize=1;strokeColor=none;fillColor=none;" vertex="1" parent="1">
          <mxGeometry x="140" y="80" width="100" height="40" as="geometry" />
        </mxCell>
        <mxCell id="TmiG85bJR1pki3lDTlbm-14" value="" style="endArrow=classic;html=1;rounded=0;entryX=0.5;entryY=0;entryDx=0;entryDy=0;" edge="1" parent="1" source="TmiG85bJR1pki3lDTlbm-13" target="TmiG85bJR1pki3lDTlbm-1">
          <mxGeometry width="50" height="50" relative="1" as="geometry">
            <mxPoint x="190" y="110" as="sourcePoint" />
            <mxPoint x="450" y="310" as="targetPoint" />
          </mxGeometry>
        </mxCell>
        <mxCell id="TmiG85bJR1pki3lDTlbm-16" value="Filling done" style="text;html=1;strokeColor=none;fillColor=none;align=center;verticalAlign=middle;whiteSpace=wrap;rounded=0;" vertex="1" parent="1">
          <mxGeometry x="380" y="160" width="100" height="30" as="geometry" />
        </mxCell>
        <mxCell id="TmiG85bJR1pki3lDTlbm-23" value="Heating started" style="text;html=1;strokeColor=none;fillColor=none;align=center;verticalAlign=middle;whiteSpace=wrap;rounded=0;" vertex="1" parent="1">
          <mxGeometry x="540" y="160" width="100" height="30" as="geometry" />
        </mxCell>
        <mxCell id="TmiG85bJR1pki3lDTlbm-24" value="Heating done" style="text;html=1;strokeColor=none;fillColor=none;align=center;verticalAlign=middle;whiteSpace=wrap;rounded=0;" vertex="1" parent="1">
          <mxGeometry x="580" y="250" width="90" height="30" as="geometry" />
        </mxCell>
        <mxCell id="TmiG85bJR1pki3lDTlbm-25" value="Mixing started" style="text;html=1;strokeColor=none;fillColor=none;align=center;verticalAlign=middle;whiteSpace=wrap;rounded=0;" vertex="1" parent="1">
          <mxGeometry x="540" y="310" width="100" height="30" as="geometry" />
        </mxCell>
        <mxCell id="TmiG85bJR1pki3lDTlbm-26" value="Mixing done" style="text;html=1;strokeColor=none;fillColor=none;align=center;verticalAlign=middle;whiteSpace=wrap;rounded=0;" vertex="1" parent="1">
          <mxGeometry x="380" y="310" width="100" height="30" as="geometry" />
        </mxCell>
        <mxCell id="TmiG85bJR1pki3lDTlbm-27" value="Draining started" style="text;html=1;strokeColor=none;fillColor=none;align=center;verticalAlign=middle;whiteSpace=wrap;rounded=0;" vertex="1" parent="1">
          <mxGeometry x="225" y="310" width="95" height="30" as="geometry" />
        </mxCell>
        <mxCell id="TmiG85bJR1pki3lDTlbm-28" value="Draining done" style="text;html=1;strokeColor=none;fillColor=none;align=center;verticalAlign=middle;whiteSpace=wrap;rounded=0;" vertex="1" parent="1">
          <mxGeometry x="190" y="250" width="90" height="30" as="geometry" />
        </mxCell>
      </root>
    </mxGraphModel>
  </diagram>
</mxfile>
